NotoSerifTamil-Regular.ufo
<glyph name="period" format="2">
  <advance width="250"/>
  <unicode hex="002E"/>
  <outline>
    <contour>
      <point x="125" y="-7" type="curve" smooth="yes"/>
      <point x="159" y="-7"/>
      <point x="188" y="10"/>
      <point x="188" y="61" type="curve" smooth="yes"/>
      <point x="188" y="113"/>
      <point x="159" y="129"/>
      <point x="125" y="129" type="curve" smooth="yes"/>
      <point x="90" y="129"/>
      <point x="62" y="113"/>
      <point x="62" y="61" type="curve" smooth="yes"/>
      <point x="62" y="10"/>
      <point x="90" y="-7"/>
    </contour>
  </outline>
</glyph>
<glyph name="zero" format="2">
  <advance width="559"/>
  <unicode hex="0030"/>
  <outline>
    <contour>
      <point x="280" y="-10" type="curve" smooth="yes"/>
      <point x="437" y="-10"/>
      <point x="514" y="137"/>
      <point x="514" y="358" type="curve" smooth="yes"/>
      <point x="514" y="580"/>
      <point x="437" y="724"/>
      <point x="281" y="724" type="curve" smooth="yes"/>
      <point x="115" y="724"/>
      <point x="45" y="580"/>
      <point x="45" y="359" type="curve" smooth="yes"/>
      <point x="45" y="137"/>
      <point x="115" y="-10"/>
    </contour>
    <contour>
      <point x="280" y="44" type="curve" smooth="yes"/>
      <point x="183" y="44"/>
      <point x="149" y="160"/>
      <point x="149" y="358" type="curve" smooth="yes"/>
      <point x="149" y="556"/>
      <point x="183" y="670"/>
      <point x="281" y="670" type="curve" smooth="yes"/>
      <point x="377" y="670"/>
      <point x="410" y="556"/>
      <point x="410" y="358" type="curve" smooth="yes"/>
      <point x="410" y="160"/>
      <point x="377" y="44"/>
    </contour>
  </outline>
</glyph>
<glyph name="one" format="2">
  <advance width="559"/>
  <unicode hex="0031"/>
  <outline>
    <contour>
      <point x="96" y="0" type="line"/>
      <point x="477" y="0" type="line"/>
      <point x="477" y="42" type="line"/>
      <point x="428" y="42" type="line" smooth="yes"/>
      <point x="383" y="42"/>
      <point x="346" y="51"/>
      <point x="346" y="114" type="curve" smooth="yes"/>
      <point x="346" y="718" type="line"/>
      <point x="282" y="718" type="line"/>
      <point x="212" y="666" type="line" smooth="yes"/>
      <point x="146" y="617"/>
      <point x="106" y="599"/>
      <point x="66" y="589" type="curve"/>
      <point x="66" y="557"/>
      <point x="87" y="535"/>
      <point x="116" y="535" type="curve" smooth="yes"/>
      <point x="156" y="535"/>
      <point x="194" y="577"/>
      <point x="245" y="639" type="curve"/>
      <point x="245" y="114" type="line" smooth="yes"/>
      <point x="245" y="51"/>
      <point x="208" y="42"/>
      <point x="163" y="42" type="curve" smooth="yes"/>
      <point x="96" y="42" type="line"/>
    </contour>
  </outline>
</glyph>
<glyph name="two" format="2">
  <advance width="559"/>
  <unicode hex="0032"/>
  <outline>
    <contour>
      <point x="51" y="0" type="line"/>
      <point x="481" y="0" type="line"/>
      <point x="486" y="173" type="line"/>
      <point x="444" y="173" type="line"/>
      <point x="440" y="155" type="line" smooth="yes"/>
      <point x="431" y="116"/>
      <point x="416" y="80"/>
      <point x="356" y="80" type="curve" smooth="yes"/>
      <point x="125" y="80" type="line"/>
      <point x="294" y="267" type="line" smooth="yes"/>
      <point x="399" y="383"/>
      <point x="461" y="464"/>
      <point x="461" y="557" type="curve" smooth="yes"/>
      <point x="461" y="658"/>
      <point x="384" y="724"/>
      <point x="258" y="724" type="curve" smooth="yes"/>
      <point x="129" y="724"/>
      <point x="62" y="667"/>
      <point x="62" y="590" type="curve" smooth="yes"/>
      <point x="62" y="539"/>
      <point x="100" y="525"/>
      <point x="148" y="525" type="curve"/>
      <point x="148" y="604"/>
      <point x="167" y="674"/>
      <point x="258" y="674" type="curve" smooth="yes"/>
      <point x="328" y="674"/>
      <point x="360" y="623"/>
      <point x="360" y="547" type="curve" smooth="yes"/>
      <point x="360" y="455"/>
      <point x="324" y="389"/>
      <point x="218" y="266" type="curve" smooth="yes"/>
      <point x="51" y="73" type="line"/>
    </contour>
  </outline>
</glyph>
<glyph name="four" format="2">
  <advance width="559"/>
  <unicode hex="0034"/>
  <outline>
    <contour>
      <point x="215" y="0" type="line"/>
      <point x="516" y="0" type="line"/>
      <point x="516" y="42" type="line"/>
      <point x="503" y="42" type="line" smooth="yes"/>
      <point x="458" y="42"/>
      <point x="421" y="51"/>
      <point x="421" y="114" type="curve" smooth="yes"/>
      <point x="421" y="196" type="line"/>
      <point x="545" y="196" type="line"/>
      <point x="545" y="252" type="line"/>
      <point x="421" y="252" type="line"/>
      <point x="421" y="714" type="line"/>
      <point x="326" y="714" type="line"/>
      <point x="17" y="237" type="line"/>
      <point x="17" y="196" type="line"/>
      <point x="325" y="196" type="line"/>
      <point x="325" y="114" type="line" smooth="yes"/>
      <point x="325" y="51"/>
      <point x="288" y="42"/>
      <point x="243" y="42" type="curve" smooth="yes"/>
      <point x="215" y="42" type="line"/>
    </contour>
    <contour>
      <point x="89" y="252" type="line"/>
      <point x="242" y="490" type="line" smooth="yes"/>
      <point x="265" y="526"/>
      <point x="319" y="617"/>
      <point x="332" y="644" type="curve"/>
      <point x="327" y="582"/>
      <point x="325" y="495"/>
      <point x="325" y="437" type="curve" smooth="yes"/>
      <point x="325" y="252" type="line"/>
    </contour>
  </outline>
</glyph>
<glyph name="seven" format="2">
  <advance width="559"/>
  <unicode hex="0037"/>
  <outline>
    <contour>
      <point x="190" y="0" type="line"/>
      <point x="265" y="0" type="line"/>
      <point x="511" y="684" type="line"/>
      <point x="511" y="713" type="line"/>
      <point x="64" y="713" type="line"/>
      <point x="59" y="532" type="line"/>
      <point x="101" y="532" type="line"/>
      <point x="105" y="582" type="line" smooth="yes"/>
      <point x="108" y="615"/>
      <point x="127" y="633"/>
      <point x="163" y="633" type="curve" smooth="yes"/>
      <point x="426" y="633" type="line"/>
    </contour>
  </outline>
</glyph>
<glyph name="eight" format="2">
  <advance width="559"/>
  <unicode hex="0038"/>
  <outline>
    <contour>
      <point x="273" y="-10" type="curve" smooth="yes"/>
      <point x="419" y="-10"/>
      <point x="513" y="64"/>
      <point x="513" y="191" type="curve" smooth="yes"/>
      <point x="513" y="278"/>
      <point x="446" y="336"/>
      <point x="347" y="383" type="curve"/>
      <point x="428" y="423"/>
      <point x="482" y="464"/>
      <point x="482" y="552" type="curve" smooth="yes"/>
      <point x="482" y="652"/>
      <point x="410" y="724"/>
      <point x="285" y="724" type="curve" smooth="yes"/>
      <point x="131" y="724"/>
      <point x="69" y="637"/>
      <point x="69" y="545" type="curve" smooth="yes"/>
      <point x="69" y="461"/>
      <point x="122" y="405"/>
      <point x="198" y="362" type="curve"/>
      <point x="111" y="320"/>
      <point x="46" y="275"/>
      <point x="46" y="179" type="curve" smooth="yes"/>
      <point x="46" y="74"/>
      <point x="123" y="-10"/>
    </contour>
    <contour>
      <point x="278" y="36" type="curve" smooth="yes"/>
      <point x="189" y="36"/>
      <point x="143" y="92"/>
      <point x="143" y="175" type="curve" smooth="yes"/>
      <point x="143" y="250"/>
      <point x="183" y="304"/>
      <point x="246" y="338" type="curve"/>
      <point x="375" y="282"/>
      <point x="422" y="237"/>
      <point x="422" y="169" type="curve" smooth="yes"/>
      <point x="422" y="92"/>
      <point x="365" y="36"/>
    </contour>
    <contour>
      <point x="298" y="406" type="curve"/>
      <point x="209" y="447"/>
      <point x="163" y="485"/>
      <point x="163" y="557" type="curve" smooth="yes"/>
      <point x="163" y="626"/>
      <point x="204" y="677"/>
      <point x="279" y="677" type="curve" smooth="yes"/>
      <point x="363" y="677"/>
      <point x="393" y="615"/>
      <point x="393" y="554" type="curve" smooth="yes"/>
      <point x="393" y="484"/>
      <point x="373" y="443"/>
    </contour>
  </outline>
</glyph>
<glyph name="colon" format="2">
  <advance width="286"/>
  <unicode hex="003A"/>
  <outline>
    <contour>
      <point x="144" y="405" type="curve" smooth="yes"/>
      <point x="178" y="405"/>
      <point x="207" y="422"/>
      <point x="207" y="473" type="curve" smooth="yes"/>
      <point x="207" y="525"/>
      <point x="178" y="541"/>
      <point x="144" y="541" type="curve" smooth="yes"/>
      <point x="109" y="541"/>
      <point x="81" y="525"/>
      <point x="81" y="473" type="curve" smooth="yes"/>
      <point x="81" y="422"/>
      <point x="109" y="405"/>
    </contour>
    <contour>
      <point x="144" y="-7" type="curve" smooth="yes"/>
      <point x="178" y="-7"/>
      <point x="207" y="10"/>
      <point x="207" y="61" type="curve" smooth="yes"/>
      <point x="207" y="113"/>
      <point x="178" y="129"/>
      <point x="144" y="129" type="curve" smooth="yes"/>
      <point x="109" y="129"/>
      <point x="81" y="113"/>
      <point x="81" y="61" type="curve" smooth="yes"/>
      <point x="81" y="10"/>
      <point x="109" y="-7"/>
    </contour>
  </outline>
</glyph>
<glyph name="bracketleft" format="2">
  <advance width="360"/>
  <unicode hex="005B"/>
  <outline>
    <contour>
      <point x="100" y="-128" type="line"/>
      <point x="323" y="-128" type="line"/>
      <point x="323" y="-86" type="line"/>
      <point x="280" y="-86" type="line" smooth="yes"/>
      <point x="235" y="-86"/>
      <point x="198" y="-77"/>
      <point x="198" y="-14" type="curve" smooth="yes"/>
      <point x="198" y="646" type="line" smooth="yes"/>
      <point x="198" y="709"/>
      <point x="235" y="718"/>
      <point x="280" y="718" type="curve" smooth="yes"/>
      <point x="323" y="718" type="line"/>
      <point x="323" y="760" type="line"/>
      <point x="100" y="760" type="line"/>
    </contour>
  </outline>
</glyph>
<glyph name="dbldanda-deva" format="2">
  <advance width="546"/>
  <unicode hex="0965"/>
  <outline>
    <contour>
      <point x="346" y="0" type="line"/>
      <point x="441" y="0" type="line"/>
      <point x="441" y="554" type="line"/>
      <point x="346" y="554" type="line"/>
    </contour>
    <contour>
      <point x="105" y="0" type="line"/>
      <point x="200" y="0" type="line"/>
      <point x="200" y="554" type="line"/>
      <point x="105" y="554" type="line"/>
    </contour>
  </outline>
</glyph>
<glyph name="visarga-tamil" format="2">
  <advance width="902"/>
  <unicode hex="0B83"/>
  <note>
uni0B83
</note>
  <outline>
    <contour>
      <point x="673" y="0" type="curve" smooth="yes"/>
      <point x="767" y="0"/>
      <point x="844" y="75"/>
      <point x="844" y="185" type="curve" smooth="yes"/>
      <point x="844" y="294"/>
      <point x="767" y="369"/>
      <point x="673" y="369" type="curve" smooth="yes"/>
      <point x="574" y="369"/>
      <point x="502" y="294"/>
      <point x="502" y="185" type="curve" smooth="yes"/>
      <point x="502" y="75"/>
      <point x="574" y="0"/>
    </contour>
    <contour>
      <point x="229" y="0" type="curve" smooth="yes"/>
      <point x="323" y="0"/>
      <point x="400" y="75"/>
      <point x="400" y="185" type="curve" smooth="yes"/>
      <point x="400" y="294"/>
      <point x="323" y="369"/>
      <point x="229" y="369" type="curve" smooth="yes"/>
      <point x="130" y="369"/>
      <point x="59" y="294"/>
      <point x="59" y="185" type="curve" smooth="yes"/>
      <point x="59" y="75"/>
      <point x="130" y="0"/>
    </contour>
    <contour>
      <point x="451" y="412" type="curve" smooth="yes"/>
      <point x="545" y="412"/>
      <point x="622" y="486"/>
      <point x="622" y="596" type="curve" smooth="yes"/>
      <point x="622" y="706"/>
      <point x="545" y="780"/>
      <point x="451" y="780" type="curve" smooth="yes"/>
      <point x="352" y="780"/>
      <point x="280" y="706"/>
      <point x="280" y="596" type="curve" smooth="yes"/>
      <point x="280" y="486"/>
      <point x="352" y="412"/>
    </contour>
    <contour>
      <point x="214" y="49" type="curve" smooth="yes"/>
      <point x="150" y="49"/>
      <point x="107" y="102"/>
      <point x="107" y="185" type="curve" smooth="yes"/>
      <point x="107" y="267"/>
      <point x="150" y="320"/>
      <point x="214" y="320" type="curve" smooth="yes"/>
      <point x="283" y="320"/>
      <point x="324" y="274"/>
      <point x="324" y="185" type="curve" smooth="yes"/>
      <point x="324" y="94"/>
      <point x="283" y="49"/>
    </contour>
    <contour>
      <point x="436" y="460" type="curve" smooth="yes"/>
      <point x="372" y="460"/>
      <point x="329" y="513"/>
      <point x="329" y="596" type="curve" smooth="yes"/>
      <point x="329" y="678"/>
      <point x="372" y="731"/>
      <point x="436" y="731" type="curve" smooth="yes"/>
      <point x="505" y="731"/>
      <point x="545" y="686"/>
      <point x="545" y="596" type="curve" smooth="yes"/>
      <point x="545" y="506"/>
      <point x="505" y="460"/>
    </contour>
    <contour>
      <point x="658" y="49" type="curve" smooth="yes"/>
      <point x="594" y="49"/>
      <point x="551" y="102"/>
      <point x="551" y="185" type="curve" smooth="yes"/>
      <point x="551" y="267"/>
      <point x="594" y="320"/>
      <point x="658" y="320" type="curve" smooth="yes"/>
      <point x="727" y="320"/>
      <point x="768" y="274"/>
      <point x="768" y="185" type="curve" smooth="yes"/>
      <point x="768" y="94"/>
      <point x="727" y="49"/>
    </contour>
  </outline>
</glyph>
<glyph name="ee-tamil" format="2">
  <advance width="938"/>
  <unicode hex="0B8F"/>
  <note>
uni0B8F
</note>
  <anchor x="505" y="0" name="bottom"/>
  <anchor x="506" y="-195" name="nukta"/>
  <anchor x="508" y="554" name="top"/>
  <anchor x="508" y="554" name="vedic"/>
  <outline>
    <contour>
      <point x="506" y="-240" type="line"/>
      <point x="743" y="14" type="line"/>
      <point x="743" y="500" type="line"/>
      <point x="919" y="500" type="line"/>
      <point x="919" y="554" type="line"/>
      <point x="410" y="554" type="line" smooth="yes"/>
      <point x="217" y="554"/>
      <point x="59" y="453"/>
      <point x="59" y="250" type="curve" smooth="yes"/>
      <point x="59" y="83"/>
      <point x="162" y="-4"/>
      <point x="278" y="-4" type="curve" smooth="yes"/>
      <point x="387" y="-4"/>
      <point x="459" y="60"/>
      <point x="459" y="150" type="curve" smooth="yes"/>
      <point x="459" y="242"/>
      <point x="401" y="304"/>
      <point x="307" y="304" type="curve" smooth="yes"/>
      <point x="209" y="304"/>
      <point x="127" y="229"/>
      <point x="120" y="124" type="curve"/>
      <point x="150" y="97" type="line"/>
      <point x="156" y="185"/>
      <point x="205" y="236"/>
      <point x="270" y="236" type="curve" smooth="yes"/>
      <point x="337" y="236"/>
      <point x="366" y="191"/>
      <point x="366" y="146" type="curve" smooth="yes"/>
      <point x="366" y="92"/>
      <point x="327" y="49"/>
      <point x="261" y="49" type="curve" smooth="yes"/>
      <point x="187" y="49"/>
      <point x="117" y="115"/>
      <point x="117" y="249" type="curve" smooth="yes"/>
      <point x="117" y="414"/>
      <point x="250" y="500"/>
      <point x="418" y="500" type="curve" smooth="yes"/>
      <point x="648" y="500" type="line"/>
      <point x="648" y="-2" type="line"/>
      <point x="464" y="-199" type="line"/>
    </contour>
  </outline>
</glyph>
<glyph name="ya-tamil" format="2">
  <advance width="976"/>
  <unicode hex="0BAF"/>
  <note>
uni0BAF
</note>
  <anchor x="505" y="0" name="bottom"/>
  <anchor x="869" y="554" name="imatra"/>
  <anchor x="505" y="0" name="nukta"/>
  <anchor x="510" y="554" name="top"/>
  <anchor x="486" y="554" name="vedic"/>
  <outline>
    <contour>
      <point x="247" y="-5" type="curve" smooth="yes"/>
      <point x="320" y="-5"/>
      <point x="360" y="49"/>
      <point x="369" y="71" type="curve"/>
      <point x="369" y="0" type="line"/>
      <point x="879" y="0" type="line"/>
      <point x="879" y="554" type="line"/>
      <point x="784" y="554" type="line"/>
      <point x="784" y="54" type="line"/>
      <point x="456" y="54" type="line"/>
      <point x="456" y="554" type="line"/>
      <point x="363" y="554" type="line"/>
      <point x="363" y="160" type="line" smooth="yes"/>
      <point x="363" y="100"/>
      <point x="329" y="56"/>
      <point x="270" y="56" type="curve" smooth="yes"/>
      <point x="222" y="56"/>
      <point x="186" y="90"/>
      <point x="186" y="151" type="curve" smooth="yes"/>
      <point x="186" y="554" type="line"/>
      <point x="93" y="554" type="line"/>
      <point x="93" y="168" type="line" smooth="yes"/>
      <point x="93" y="52"/>
      <point x="151" y="-5"/>
    </contour>
  </outline>
</glyph>
<glyph name="eeMatra-tamil" format="2">
  <advance width="645"/>
  <unicode hex="0BC7"/>
  <note>
uni0BC7
</note>
  <outline>
    <contour>
      <point x="410" y="-5" type="curve" smooth="yes"/>
      <point x="519" y="-5"/>
      <point x="591" y="59"/>
      <point x="591" y="150" type="curve" smooth="yes"/>
      <point x="591" y="253"/>
      <point x="531" y="311"/>
      <point x="434" y="311" type="curve" smooth="yes"/>
      <point x="337" y="311"/>
      <point x="245" y="236"/>
      <point x="241" y="96" type="curve"/>
      <point x="272" y="73" type="line"/>
      <point x="278" y="200"/>
      <point x="334" y="243"/>
      <point x="401" y="243" type="curve" smooth="yes"/>
      <point x="469" y="243"/>
      <point x="498" y="198"/>
      <point x="498" y="146" type="curve" smooth="yes"/>
      <point x="498" y="91"/>
      <point x="459" y="49"/>
      <point x="393" y="49" type="curve" smooth="yes"/>
      <point x="263" y="49"/>
      <point x="122" y="183"/>
      <point x="122" y="412" type="curve" smooth="yes"/>
      <point x="122" y="642"/>
      <point x="263" y="775"/>
      <point x="393" y="775" type="curve" smooth="yes"/>
      <point x="459" y="775"/>
      <point x="498" y="733"/>
      <point x="498" y="678" type="curve" smooth="yes"/>
      <point x="498" y="626"/>
      <point x="469" y="581"/>
      <point x="401" y="581" type="curve" smooth="yes"/>
      <point x="334" y="581"/>
      <point x="278" y="625"/>
      <point x="272" y="751" type="curve"/>
      <point x="241" y="729" type="line"/>
      <point x="245" y="588"/>
      <point x="337" y="514"/>
      <point x="434" y="514" type="curve" smooth="yes"/>
      <point x="531" y="514"/>
      <point x="591" y="571"/>
      <point x="591" y="674" type="curve" smooth="yes"/>
      <point x="591" y="765"/>
      <point x="519" y="829"/>
      <point x="410" y="829" type="curve" smooth="yes"/>
      <point x="238" y="829"/>
      <point x="63" y="676"/>
      <point x="63" y="412" type="curve" smooth="yes"/>
      <point x="63" y="148"/>
      <point x="238" y="-5"/>
    </contour>
  </outline>
</glyph>
<glyph name="aiMatra-tamil" format="2">
  <advance width="1305"/>
  <unicode hex="0BC8"/>
  <note>
uni0BC8
</note>
  <outline>
    <contour>
      <point x="1063" y="-5" type="line"/>
      <point x="1187" y="42"/>
      <point x="1247" y="151"/>
      <point x="1247" y="260" type="curve" smooth="yes"/>
      <point x="1247" y="447"/>
      <point x="1103" y="559"/>
      <point x="904" y="559" type="curve" smooth="yes"/>
      <point x="678" y="559"/>
      <point x="535" y="407"/>
      <point x="535" y="207" type="curve" smooth="yes"/>
      <point x="535" y="86"/>
      <point x="597" y="-5"/>
      <point x="711" y="-5" type="curve" smooth="yes"/>
      <point x="823" y="-5"/>
      <point x="896" y="77"/>
      <point x="896" y="194" type="curve" smooth="yes"/>
      <point x="896" y="412"/>
      <point x="700" y="559"/>
      <point x="462" y="559" type="curve" smooth="yes"/>
      <point x="250" y="559"/>
      <point x="59" y="445"/>
      <point x="59" y="234" type="curve" smooth="yes"/>
      <point x="59" y="77"/>
      <point x="167" y="-4"/>
      <point x="279" y="-4" type="curve" smooth="yes"/>
      <point x="387" y="-4"/>
      <point x="459" y="60"/>
      <point x="459" y="150" type="curve" smooth="yes"/>
      <point x="459" y="242"/>
      <point x="401" y="304"/>
      <point x="307" y="304" type="curve" smooth="yes"/>
      <point x="210" y="304"/>
      <point x="128" y="229"/>
      <point x="121" y="124" type="curve"/>
      <point x="151" y="97" type="line"/>
      <point x="157" y="185"/>
      <point x="206" y="236"/>
      <point x="270" y="236" type="curve" smooth="yes"/>
      <point x="338" y="236"/>
      <point x="367" y="191"/>
      <point x="367" y="146" type="curve" smooth="yes"/>
      <point x="367" y="92"/>
      <point x="328" y="49"/>
      <point x="262" y="49" type="curve" smooth="yes"/>
      <point x="190" y="49"/>
      <point x="117" y="109"/>
      <point x="117" y="231" type="curve" smooth="yes"/>
      <point x="117" y="407"/>
      <point x="269" y="505"/>
      <point x="448" y="505" type="curve" smooth="yes"/>
      <point x="664" y="505"/>
      <point x="798" y="399"/>
      <point x="798" y="195" type="curve" smooth="yes"/>
      <point x="798" y="113"/>
      <point x="766" y="49"/>
      <point x="693" y="49" type="curve" smooth="yes"/>
      <point x="622" y="49"/>
      <point x="591" y="118"/>
      <point x="591" y="203" type="curve" smooth="yes"/>
      <point x="591" y="371"/>
      <point x="697" y="505"/>
      <point x="890" y="505" type="curve" smooth="yes"/>
      <point x="1050" y="505"/>
      <point x="1151" y="404"/>
      <point x="1151" y="246" type="curve" smooth="yes"/>
      <point x="1151" y="163"/>
      <point x="1116" y="80"/>
      <point x="1041" y="34" type="curve"/>
    </contour>
  </outline>
</glyph>
<glyph name="five-tamil" format="2">
  <advance width="1122"/>
  <unicode hex="0BEB"/>
  <note>
uni0BEB
</note>
  <outline>
    <contour>
      <point x="548" y="-296" type="curve" smooth="yes"/>
      <point x="840" y="-296"/>
      <point x="983" y="-109"/>
      <point x="983" y="112" type="curve" smooth="yes"/>
      <point x="983" y="245"/>
      <point x="918" y="345"/>
      <point x="797" y="345" type="curve" smooth="yes"/>
      <point x="713" y="345"/>
      <point x="653" y="281"/>
      <point x="653" y="185" type="curve" smooth="yes"/>
      <point x="653" y="138" type="line"/>
      <point x="681" y="138" type="line"/>
      <point x="681" y="183" type="line" smooth="yes"/>
      <point x="681" y="236"/>
      <point x="711" y="286"/>
      <point x="771" y="286" type="curve" smooth="yes"/>
      <point x="857" y="286"/>
      <point x="887" y="202"/>
      <point x="887" y="102" type="curve" smooth="yes"/>
      <point x="887" y="-92"/>
      <point x="792" y="-243"/>
      <point x="548" y="-243" type="curve" smooth="yes"/>
      <point x="273" y="-243"/>
      <point x="120" y="-12"/>
      <point x="120" y="264" type="curve" smooth="yes"/>
      <point x="120" y="549"/>
      <point x="273" y="739"/>
      <point x="572" y="739" type="curve" smooth="yes"/>
      <point x="828" y="739"/>
      <point x="972" y="621"/>
      <point x="989" y="396" type="curve"/>
      <point x="1050" y="396" type="line"/>
      <point x="1033" y="650"/>
      <point x="843" y="829"/>
      <point x="572" y="829" type="curve" smooth="yes"/>
      <point x="231" y="829"/>
      <point x="59" y="584"/>
      <point x="59" y="264" type="curve" smooth="yes"/>
      <point x="59" y="-38"/>
      <point x="238" y="-296"/>
    </contour>
    <contour>
      <point x="334" y="0" type="line"/>
      <point x="396" y="0" type="line"/>
      <point x="396" y="500" type="line"/>
      <point x="586" y="500" type="line"/>
      <point x="586" y="0" type="line"/>
      <point x="681" y="0" type="line"/>
      <point x="681" y="500" type="line"/>
      <point x="856" y="500" type="line"/>
      <point x="856" y="554" type="line"/>
      <point x="334" y="554" type="line"/>
    </contour>
  </outline>
</glyph>
<glyph name="ten-tamil" format="2">
  <advance width="852"/>
  <unicode hex="0BF0"/>
  <note>
uni0BF0
</note>
  <outline>
    <contour>
      <point x="517" y="-5" type="curve" smooth="yes"/>
      <point x="686" y="-5"/>
      <point x="776" y="161"/>
      <point x="776" y="326" type="curve" smooth="yes"/>
      <point x="776" y="604"/>
      <point x="598" y="765"/>
      <point x="311" y="796" type="curve"/>
      <point x="306" y="742" type="line"/>
      <point x="573" y="717"/>
      <point x="715" y="553"/>
      <point x="715" y="336" type="curve" smooth="yes"/>
      <point x="715" y="160"/>
      <point x="631" y="49"/>
      <point x="524" y="49" type="curve" smooth="yes"/>
      <point x="469" y="49"/>
      <point x="444" y="80"/>
      <point x="444" y="147" type="curve" smooth="yes"/>
      <point x="444" y="554" type="line"/>
      <point x="352" y="554" type="line"/>
      <point x="352" y="173" type="line" smooth="yes"/>
      <point x="352" y="63"/>
      <point x="405" y="-5"/>
    </contour>
    <contour>
      <point x="243" y="-5" type="curve" smooth="yes"/>
      <point x="332" y="-5"/>
      <point x="388" y="45"/>
      <point x="388" y="160" type="curve" smooth="yes"/>
      <point x="388" y="207" type="line"/>
      <point x="352" y="207" type="line"/>
      <point x="352" y="156" type="line" smooth="yes"/>
      <point x="352" y="97"/>
      <point x="321" y="49"/>
      <point x="266" y="49" type="curve" smooth="yes"/>
      <point x="214" y="49"/>
      <point x="190" y="72"/>
      <point x="190" y="132" type="curve" smooth="yes"/>
      <point x="190" y="554" type="line"/>
      <point x="95" y="554" type="line"/>
      <point x="95" y="144" type="line" smooth="yes"/>
      <point x="95" y="44"/>
      <point x="153" y="-5"/>
    </contour>
  </outline>
</glyph>
<glyph name="onehundred-tamil" format="2">
  <advance width="889"/>
  <unicode hex="0BF1"/>
  <note>
uni0BF1
</note>
  <outline>
    <contour>
      <point x="312" y="0" type="line"/>
      <point x="372" y="0" type="line"/>
      <point x="372" y="500" type="line"/>
      <point x="600" y="500" type="line"/>
      <point x="600" y="0" type="line"/>
      <point x="694" y="0" type="line"/>
      <point x="694" y="500" type="line"/>
      <point x="870" y="500" type="line"/>
      <point x="870" y="554" type="line"/>
      <point x="312" y="554" type="line"/>
    </contour>
    <contour>
      <point x="72" y="0" type="line"/>
      <point x="133" y="0" type="line"/>
      <point x="133" y="408" type="line" smooth="yes"/>
      <point x="133" y="469"/>
      <point x="164" y="505"/>
      <point x="222" y="505" type="curve" smooth="yes"/>
      <point x="278" y="505"/>
      <point x="312" y="461"/>
      <point x="312" y="403" type="curve"/>
      <point x="344" y="403" type="line"/>
      <point x="344" y="491"/>
      <point x="290" y="559"/>
      <point x="212" y="559" type="curve" smooth="yes"/>
      <point x="124" y="559"/>
      <point x="72" y="499"/>
      <point x="72" y="408" type="curve" smooth="yes"/>
    </contour>
  </outline>
</glyph>
<glyph name="day-tamil" format="2">
  <advance width="959"/>
  <unicode hex="0BF3"/>
  <note>
uni0BF3
</note>
  <outline>
    <contour>
      <point x="279" y="-4" type="curve" smooth="yes"/>
      <point x="387" y="-4"/>
      <point x="459" y="60"/>
      <point x="459" y="150" type="curve" smooth="yes"/>
      <point x="459" y="242"/>
      <point x="401" y="304"/>
      <point x="307" y="304" type="curve" smooth="yes"/>
      <point x="210" y="304"/>
      <point x="128" y="229"/>
      <point x="121" y="124" type="curve"/>
      <point x="151" y="97" type="line"/>
      <point x="157" y="185"/>
      <point x="206" y="236"/>
      <point x="270" y="236" type="curve" smooth="yes"/>
      <point x="338" y="236"/>
      <point x="367" y="191"/>
      <point x="367" y="146" type="curve" smooth="yes"/>
      <point x="367" y="92"/>
      <point x="328" y="49"/>
      <point x="262" y="49" type="curve" smooth="yes"/>
      <point x="190" y="49"/>
      <point x="117" y="109"/>
      <point x="117" y="231" type="curve" smooth="yes"/>
      <point x="117" y="403"/>
      <point x="232" y="505"/>
      <point x="404" y="505" type="curve" smooth="yes"/>
      <point x="553" y="505"/>
      <point x="668" y="402"/>
      <point x="668" y="257" type="curve" smooth="yes"/>
      <point x="668" y="150"/>
      <point x="629" y="83"/>
      <point x="587" y="43" type="curve"/>
      <point x="605" y="0" type="line"/>
      <point x="940" y="0" type="line"/>
      <point x="940" y="54" type="line"/>
      <point x="676" y="54" type="line"/>
      <point x="719" y="97"/>
      <point x="764" y="164"/>
      <point x="764" y="261" type="curve" smooth="yes"/>
      <point x="764" y="441"/>
      <point x="609" y="559"/>
      <point x="417" y="559" type="curve" smooth="yes"/>
      <point x="211" y="559"/>
      <point x="59" y="440"/>
      <point x="59" y="234" type="curve" smooth="yes"/>
      <point x="59" y="77"/>
      <point x="167" y="-4"/>
    </contour>
  </outline>
</glyph>
<glyph name="year-tamil" format="2">
  <advance width="2210"/>
  <unicode hex="0BF5"/>
  <note>
uni0BF5
</note>
  <anchor x="937" y="0" name="bottom"/>
  <anchor x="1410" y="554" name="imatra"/>
  <anchor x="937" y="0" name="nukta"/>
  <anchor x="937" y="554" name="top"/>
  <anchor x="891" y="554" name="vedic"/>
  <outline>
    <contour>
      <point x="848" y="-296" type="curve" smooth="yes"/>
      <point x="1269" y="-296"/>
      <point x="1595" y="-152"/>
      <point x="1595" y="142" type="curve" smooth="yes"/>
      <point x="1595" y="264"/>
      <point x="1529" y="345"/>
      <point x="1414" y="345" type="curve" smooth="yes"/>
      <point x="1330" y="345"/>
      <point x="1270" y="281"/>
      <point x="1270" y="185" type="curve" smooth="yes"/>
      <point x="1270" y="138" type="line"/>
      <point x="1297" y="138" type="line"/>
      <point x="1297" y="183" type="line" smooth="yes"/>
      <point x="1297" y="236"/>
      <point x="1328" y="286"/>
      <point x="1388" y="286" type="curve" smooth="yes"/>
      <point x="1467" y="286"/>
      <point x="1500" y="224"/>
      <point x="1500" y="136" type="curve" smooth="yes"/>
      <point x="1500" y="-131"/>
      <point x="1229" y="-243"/>
      <point x="848" y="-243" type="curve" smooth="yes"/>
      <point x="430" y="-243"/>
      <point x="125" y="-61"/>
      <point x="125" y="269" type="curve" smooth="yes"/>
      <point x="125" y="559"/>
      <point x="370" y="775"/>
      <point x="896" y="775" type="curve" smooth="yes"/>
      <point x="1437" y="775"/>
      <point x="1724" y="567"/>
      <point x="1724" y="291" type="curve" smooth="yes"/>
      <point x="1724" y="173" type="line" smooth="yes"/>
      <point x="1724" y="63"/>
      <point x="1801" y="0"/>
      <point x="1904" y="0" type="curve" smooth="yes"/>
      <point x="2058" y="0"/>
      <point x="2147" y="131"/>
      <point x="2147" y="279" type="curve" smooth="yes"/>
      <point x="2147" y="375"/>
      <point x="2115" y="478"/>
      <point x="2026" y="559" type="curve"/>
      <point x="1984" y="519" type="line"/>
      <point x="2059" y="454"/>
      <point x="2083" y="370"/>
      <point x="2083" y="289" type="curve" smooth="yes"/>
      <point x="2083" y="163"/>
      <point x="2016" y="59"/>
      <point x="1915" y="59" type="curve" smooth="yes"/>
      <point x="1862" y="59"/>
      <point x="1818" y="94"/>
      <point x="1818" y="172" type="curve" smooth="yes"/>
      <point x="1818" y="289" type="line" smooth="yes"/>
      <point x="1818" y="606"/>
      <point x="1476" y="829"/>
      <point x="896" y="829" type="curve" smooth="yes"/>
      <point x="313" y="829"/>
      <point x="63" y="579"/>
      <point x="63" y="269" type="curve" smooth="yes"/>
      <point x="63" y="-87"/>
      <point x="395" y="-296"/>
    </contour>
    <component base="lla-tamil" xOffset="241"/>
  </outline>
</glyph>
<glyph name="credit-tamil" format="2">
  <advance width="1552"/>
  <unicode hex="0BF7"/>
  <note>
uni0BF7
</note>
  <anchor x="510" y="0" name="bottom"/>
  <anchor x="511" y="0" name="nukta"/>
  <anchor x="511" y="554" name="top"/>
  <anchor x="513" y="554" name="vedic"/>
  <outline>
    <contour>
      <point x="1005" y="-5" type="curve" smooth="yes"/>
      <point x="1103" y="-5"/>
      <point x="1173" y="59"/>
      <point x="1173" y="144" type="curve" smooth="yes"/>
      <point x="1173" y="254"/>
      <point x="1087" y="317"/>
      <point x="967" y="317" type="curve" smooth="yes"/>
      <point x="846" y="317"/>
      <point x="746" y="249"/>
      <point x="684" y="158" type="curve"/>
      <point x="684" y="90" type="line"/>
      <point x="739" y="178"/>
      <point x="834" y="264"/>
      <point x="954" y="264" type="curve" smooth="yes"/>
      <point x="1027" y="264"/>
      <point x="1081" y="214"/>
      <point x="1081" y="137" type="curve" smooth="yes"/>
      <point x="1081" y="83"/>
      <point x="1044" y="49"/>
      <point x="986" y="49" type="curve" smooth="yes"/>
      <point x="917" y="49"/>
      <point x="882" y="107"/>
      <point x="882" y="172" type="curve" smooth="yes"/>
      <point x="882" y="295"/>
      <point x="974" y="370"/>
      <point x="1103" y="370" type="curve" smooth="yes"/>
      <point x="1232" y="370"/>
      <point x="1321" y="301"/>
      <point x="1321" y="185" type="curve" smooth="yes"/>
      <point x="1321" y="137"/>
      <point x="1300" y="80"/>
      <point x="1261" y="43" type="curve"/>
      <point x="1279" y="0" type="line"/>
      <point x="1533" y="0" type="line"/>
      <point x="1533" y="54" type="line"/>
      <point x="1331" y="54" type="line"/>
      <point x="1343" y="44" type="line"/>
      <point x="1384" y="79"/>
      <point x="1416" y="129"/>
      <point x="1416" y="191" type="curve" smooth="yes"/>
      <point x="1416" y="328"/>
      <point x="1273" y="423"/>
      <point x="1117" y="423" type="curve" smooth="yes"/>
      <point x="958" y="423"/>
      <point x="824" y="330"/>
      <point x="824" y="179" type="curve" smooth="yes"/>
      <point x="824" y="77"/>
      <point x="882" y="-5"/>
    </contour>
    <component base="e-tamil" xOffset="5"/>
  </outline>
</glyph>
<glyph name="number-tamil" format="2">
  <advance width="954"/>
  <unicode hex="0BFA"/>
  <note>
uni0BFA
</note>
  <anchor x="421" y="0" name="bottom"/>
  <anchor x="579" y="554" name="imatra"/>
  <anchor x="413" y="-181" name="nukta"/>
  <anchor x="422" y="554" name="top"/>
  <anchor x="433" y="554" name="vedic"/>
  <outline>
    <contour>
      <point x="750" y="500" type="line"/>
      <point x="973" y="500" type="line"/>
      <point x="973" y="554" type="line"/>
      <point x="809" y="554" type="line"/>
      <point x="814" y="528" type="line"/>
      <point x="905" y="592"/>
      <point x="944" y="664"/>
      <point x="944" y="743" type="curve" smooth="yes"/>
      <point x="944" y="867"/>
      <point x="839" y="953"/>
      <point x="717" y="953" type="curve" smooth="yes"/>
      <point x="596" y="953"/>
      <point x="508" y="872"/>
      <point x="508" y="761" type="curve" smooth="yes"/>
      <point x="508" y="665"/>
      <point x="566" y="602"/>
      <point x="658" y="602" type="curve" smooth="yes"/>
      <point x="729" y="602"/>
      <point x="781" y="657"/>
      <point x="781" y="718" type="curve" smooth="yes"/>
      <point x="781" y="815"/>
      <point x="700" y="868"/>
      <point x="601" y="868" type="curve" smooth="yes"/>
      <point x="488" y="868"/>
      <point x="394" y="794"/>
      <point x="394" y="687" type="curve" smooth="yes"/>
      <point x="394" y="594"/>
      <point x="458" y="517"/>
      <point x="558" y="512" type="curve"/>
      <point x="575" y="554" type="line"/>
      <point x="499" y="554"/>
      <point x="452" y="613"/>
      <point x="452" y="683" type="curve" smooth="yes"/>
      <point x="452" y="766"/>
      <point x="513" y="814"/>
      <point x="598" y="814" type="curve" smooth="yes"/>
      <point x="655" y="814"/>
      <point x="703" y="779"/>
      <point x="703" y="721" type="curve" smooth="yes"/>
      <point x="703" y="678"/>
      <point x="677" y="656"/>
      <point x="639" y="656" type="curve" smooth="yes"/>
      <point x="587" y="656"/>
      <point x="564" y="701"/>
      <point x="564" y="753" type="curve" smooth="yes"/>
      <point x="564" y="832"/>
      <point x="604" y="899"/>
      <point x="710" y="899" type="curve" smooth="yes"/>
      <point x="812" y="899"/>
      <point x="866" y="827"/>
      <point x="866" y="739" type="curve" smooth="yes"/>
      <point x="866" y="656"/>
      <point x="833" y="606"/>
      <point x="734" y="542" type="curve"/>
    </contour>
    <component base="na-tamil"/>
  </outline>
</glyph>
<glyph name="endash" format="2">
  <advance width="500"/>
  <unicode hex="2013"/>
  <outline>
    <contour>
      <point x="-5" y="239" type="line"/>
      <point x="505" y="239" type="line"/>
      <point x="505" y="298" type="line"/>
      <point x="-5" y="298" type="line"/>
    </contour>
  </outline>
</glyph>
<glyph name="foursuperior" format="2">
  <advance width="400"/>
  <unicode hex="2074"/>
  <outline>
    <contour>
      <point x="125" y="387" type="line"/>
      <point x="345" y="387" type="line"/>
      <point x="345" y="421" type="line"/>
      <point x="325" y="421" type="line"/>
      <point x="303" y="421"/>
      <point x="283" y="425"/>
      <point x="283" y="459" type="curve"/>
      <point x="283" y="514" type="line"/>
      <point x="379" y="514" type="line"/>
      <point x="379" y="557" type="line"/>
      <point x="283" y="557" type="line"/>
      <point x="283" y="819" type="line"/>
      <point x="203" y="819" type="line"/>
      <point x="16" y="544" type="line"/>
      <point x="16" y="514" type="line"/>
      <point x="194" y="514" type="line"/>
      <point x="194" y="459" type="line"/>
      <point x="194" y="425"/>
      <point x="175" y="421"/>
      <point x="153" y="421" type="curve"/>
      <point x="125" y="421" type="line"/>
    </contour>
    <contour>
      <point x="75" y="557" type="line"/>
      <point x="184" y="715" type="line"/>
      <point x="187" y="720"/>
      <point x="194" y="733"/>
      <point x="199" y="744" type="curve"/>
      <point x="196" y="719"/>
      <point x="194" y="691"/>
      <point x="194" y="670" type="curve"/>
      <point x="194" y="557" type="line"/>
    </contour>
  </outline>
</glyph>
<glyph name="vii-tamil" format="2">
  <advance width="1154"/>
  <note>
g142
</note>
  <anchor x="607" y="0" name="bottom"/>
  <anchor x="610" y="0" name="nukta"/>
  <anchor x="934" y="882" name="top"/>
  <anchor x="567" y="554" name="vedic"/>
  <anchor x="974" y="554" name="imatra"/>
  <outline>
    <contour>
      <point x="908" y="505" type="curve" smooth="yes"/>
      <point x="972" y="505" type="line"/>
      <point x="972" y="554" type="line"/>
      <point x="908" y="554" type="line" smooth="yes"/>
      <point x="817" y="554"/>
      <point x="755" y="604"/>
      <point x="755" y="684" type="curve" smooth="yes"/>
      <point x="755" y="770"/>
      <point x="820" y="828"/>
      <point x="930" y="828" type="curve" smooth="yes"/>
      <point x="1005" y="828"/>
      <point x="1056" y="792"/>
      <point x="1056" y="730" type="curve" smooth="yes"/>
      <point x="1056" y="687"/>
      <point x="1022" y="656"/>
      <point x="978" y="656" type="curve" smooth="yes"/>
      <point x="883" y="656"/>
      <point x="861" y="756"/>
      <point x="912" y="851" type="curve"/>
      <point x="869" y="855" type="line"/>
      <point x="795" y="729"/>
      <point x="847" y="602"/>
      <point x="992" y="602" type="curve" smooth="yes"/>
      <point x="1078" y="602"/>
      <point x="1139" y="656"/>
      <point x="1139" y="725" type="curve" smooth="yes"/>
      <point x="1139" y="818"/>
      <point x="1060" y="882"/>
      <point x="934" y="882" type="curve" smooth="yes"/>
      <point x="798" y="882"/>
      <point x="697" y="800"/>
      <point x="697" y="685" type="curve" smooth="yes"/>
      <point x="697" y="576"/>
      <point x="786" y="505"/>
    </contour>
    <component base="va-tamil"/>
  </outline>
</glyph>
